<svg width="1080" height="1080" viewBox="0 0 1080 1080" fill="none" xmlns="http://www.w3.org/2000/svg">
<rect width="1080" height="1080" fill="#083821"/>
<path d="M476.609 367.797H425.767V713.939H476.609V367.797Z" fill="#E2F39C"/>
<path d="M490.217 367.797V713.939H592.158V367.797H490.217ZM548.249 656.803C548.249 660.39 545.168 663.465 541.573 663.465C537.978 663.465 534.897 660.39 534.897 656.803V425.444C534.897 421.857 537.978 418.783 541.573 418.783C545.168 418.783 548.249 421.857 548.249 425.444V657.06V656.803Z" fill="#E2F39C"/>
<path d="M886.94 476.174C883.345 476.174 880.263 473.1 880.263 469.513V425.444C880.263 421.857 883.345 418.783 886.94 418.783C890.535 418.783 893.616 421.857 893.616 425.444V462.851H938.038V367.797H836.098V526.648H886.683C888.737 526.648 890.278 527.417 891.562 528.698C892.845 529.979 893.873 531.516 893.873 533.566V656.803C893.873 660.39 890.791 663.465 887.196 663.465C883.602 663.465 880.52 660.39 880.52 656.803V539.971H836.354V713.939H938.295V475.918H887.453L886.94 476.174Z" fill="#E2F39C"/>
<path d="M242.941 691.392V390.087L191.842 367.541H141V713.683H192.099L242.941 691.136V691.392ZM185.423 656.291V424.676C185.423 421.089 188.504 418.014 192.099 418.014C195.694 418.014 198.775 421.089 198.775 424.676V656.291C198.775 659.878 195.694 662.953 192.099 662.953C188.504 662.953 185.423 659.878 185.423 656.291Z" fill="#E2F39C"/>
<path d="M361.315 368.053H310.473V714.195H412.414V390.6L361.315 368.053ZM369.532 657.06C369.532 660.647 366.451 663.721 362.856 663.721C359.261 663.721 356.18 660.647 356.18 657.06V533.822C356.18 530.235 359.261 527.16 362.856 527.16C366.451 527.16 369.532 530.235 369.532 533.822V657.06ZM369.532 469.513C369.532 473.1 366.451 476.174 362.856 476.174C359.261 476.174 356.18 473.1 356.18 469.513V425.444C356.18 421.857 359.261 418.783 362.856 418.783C366.451 418.783 369.532 421.857 369.532 425.444V469.513Z" fill="#E2F39C"/>
<path d="M771.389 605.818H822.231V390.856L771.133 368.309C771.133 368.053 720.291 368.053 720.291 368.053V714.195H822.231V619.397H777.809V656.804C777.809 660.391 774.727 663.465 771.133 663.465C767.538 663.465 764.456 660.391 764.456 656.804V612.735C764.456 609.148 767.538 606.074 771.133 606.074L771.389 605.818ZM764.713 424.932C764.713 421.345 767.794 418.27 771.389 418.27C774.984 418.27 778.066 421.345 778.066 424.932V548.17C778.066 551.757 774.984 554.831 771.389 554.831C767.794 554.831 764.713 551.757 764.713 548.17V424.932Z" fill="#E2F39C"/>
<path d="M685.112 501.539L707.195 477.455V367.797H663.029V469.256C663.029 472.843 659.948 475.918 656.353 475.918C652.758 475.918 649.677 472.843 649.677 469.256V367.797H605.254V713.939H649.677V533.566C649.677 529.979 652.758 526.904 656.353 526.904C659.948 526.904 663.029 529.979 663.029 533.566V713.939H707.195V525.367L685.112 501.283V501.539Z" fill="#E2F39C"/>
<path d="M296.607 476.174H256.807V526.648H296.607V476.174Z" fill="#E2F39C"/>
<path d="M822.489 304H720.805V354.474H822.489V304Z" fill="#E2F39C"/>
</svg>
