<svg width="40" height="40" viewBox="0 0 40 40" fill="none" xmlns="http://www.w3.org/2000/svg">
<g id="ph:hand-heart" clip-path="url(#clip0_2040_18)">
<path id="Vector" d="M35.9891 22.0405C35.5803 21.7255 35.1117 21.497 34.6118 21.3688C34.1119 21.2407 33.5911 21.2157 33.0812 21.2952C36.0156 18.3327 37.5 15.3874 37.5 12.4999C37.5 8.36397 34.1734 4.9999 30.0844 4.9999C28.9994 4.99309 27.9261 5.22385 26.9397 5.67598C25.9534 6.12811 25.078 6.79065 24.375 7.61709C23.672 6.79065 22.7966 6.12811 21.8103 5.67598C20.8239 5.22385 19.7506 4.99309 18.6656 4.9999C14.5766 4.9999 11.25 8.36397 11.25 12.4999C11.25 14.2187 11.7562 15.889 12.8219 17.6562C11.9491 17.8773 11.1526 18.3309 10.5172 18.9687L6.98281 22.4999H2.5C1.83696 22.4999 1.20107 22.7633 0.732233 23.2321C0.263392 23.701 0 24.3369 0 24.9999L0 31.2499C0 31.9129 0.263392 32.5488 0.732233 33.0177C1.20107 33.4865 1.83696 33.7499 2.5 33.7499H18.75C18.8522 33.7498 18.954 33.7372 19.0531 33.7124L29.0531 31.2124C29.1169 31.1972 29.1791 31.1763 29.2391 31.1499L35.3125 28.5655L35.3812 28.5343C35.965 28.2426 36.4648 27.8071 36.8337 27.2689C37.2026 26.7307 37.4284 26.1074 37.4898 25.4578C37.5512 24.8081 37.4463 24.1536 37.1848 23.5557C36.9233 22.9579 36.514 22.4364 35.9953 22.0405H35.9891ZM18.6656 7.4999C19.6338 7.48573 20.5841 7.76064 21.3952 8.28948C22.2063 8.81832 22.8412 9.57705 23.2188 10.4687C23.3129 10.6979 23.4731 10.894 23.679 11.032C23.8849 11.17 24.1271 11.2437 24.375 11.2437C24.6229 11.2437 24.8651 11.17 25.071 11.032C25.2769 10.894 25.4371 10.6979 25.5312 10.4687C25.9088 9.57705 26.5437 8.81832 27.3548 8.28948C28.1659 7.76064 29.1162 7.48573 30.0844 7.4999C32.7484 7.4999 35 9.78897 35 12.4999C35 15.5483 32.5328 18.9968 27.8656 22.4843L26.1328 22.8827C26.2849 22.2402 26.2896 21.5716 26.1466 20.927C26.0035 20.2824 25.7164 19.6786 25.3068 19.1607C24.8972 18.6429 24.3756 18.2245 23.7813 17.9368C23.187 17.6492 22.5353 17.4998 21.875 17.4999H15.7312C14.3828 15.6812 13.75 14.0812 13.75 12.4999C13.75 9.78897 16.0016 7.4999 18.6656 7.4999ZM2.5 24.9999H6.25V31.2499H2.5V24.9999ZM34.2859 26.2827L28.3484 28.8108L18.5938 31.2499H8.75V24.2671L12.2859 20.7327C12.5172 20.4996 12.7926 20.3147 13.096 20.1889C13.3993 20.0631 13.7247 19.9989 14.0531 19.9999H21.875C22.3723 19.9999 22.8492 20.1974 23.2008 20.5491C23.5525 20.9007 23.75 21.3776 23.75 21.8749C23.75 22.3722 23.5525 22.8491 23.2008 23.2007C22.8492 23.5524 22.3723 23.7499 21.875 23.7499H17.5C17.1685 23.7499 16.8505 23.8816 16.6161 24.116C16.3817 24.3504 16.25 24.6684 16.25 24.9999C16.25 25.3314 16.3817 25.6494 16.6161 25.8838C16.8505 26.1182 17.1685 26.2499 17.5 26.2499H22.5C22.5941 26.2497 22.6879 26.2392 22.7797 26.2187L33.2484 23.8108L33.2969 23.7983C33.6165 23.7096 33.9576 23.7422 34.2545 23.8899C34.5515 24.0375 34.7834 24.2898 34.9056 24.5981C35.0278 24.9065 35.0316 25.2491 34.9163 25.5601C34.8011 25.8711 34.5749 26.1285 34.2812 26.2827H34.2859Z" fill="#F8F6F2"/>
</g>
<defs>
<clipPath id="clip0_2040_18">
<rect width="40" height="40" fill="white"/>
</clipPath>
</defs>
</svg>
