<svg width="657" height="338" viewBox="0 0 657 338" fill="none" xmlns="http://www.w3.org/2000/svg">
<path d="M276.541 52.5683H234.647V337.789H276.541V52.5683Z" fill="#FCF9F0"/>
<path d="M287.754 52.5683V337.789H371.753V52.5683H287.754ZM335.572 290.709C335.572 293.665 333.033 296.199 330.071 296.199C327.109 296.199 324.57 293.665 324.57 290.709V100.07C324.57 97.1142 327.109 94.5808 330.071 94.5808C333.033 94.5808 335.572 97.1142 335.572 100.07V290.921V290.709Z" fill="#FCF9F0"/>
<path d="M614.653 141.871C611.691 141.871 609.152 139.338 609.152 136.382V100.07C609.152 97.1142 611.691 94.5808 614.653 94.5808C617.616 94.5808 620.155 97.1142 620.155 100.07V130.893H656.759V52.5683H572.76V183.462H614.442C616.135 183.462 617.404 184.095 618.462 185.15C619.52 186.206 620.366 187.473 620.366 189.162V290.709C620.366 293.665 617.827 296.199 614.865 296.199C611.903 296.199 609.364 293.665 609.364 290.709V194.44H572.971V337.789H656.97V141.66H615.077L614.653 141.871Z" fill="#FCF9F0"/>
<path d="M83.999 319.21V70.9357L41.8937 52.3573H0V337.578H42.1053L83.999 318.999V319.21ZM36.6041 290.287V99.4366C36.6041 96.481 39.1431 93.9475 42.1053 93.9475C45.0675 93.9475 47.6065 96.481 47.6065 99.4366V290.287C47.6065 293.243 45.0675 295.776 42.1053 295.776C39.1431 295.776 36.6041 293.243 36.6041 290.287Z" fill="#FCF9F0"/>
<path d="M181.539 52.7795H139.645V338H223.644V71.3579L181.539 52.7795ZM188.309 290.921C188.309 293.876 185.77 296.41 182.808 296.41C179.846 296.41 177.307 293.876 177.307 290.921V189.373C177.307 186.417 179.846 183.884 182.808 183.884C185.77 183.884 188.309 186.417 188.309 189.373V290.921ZM188.309 136.382C188.309 139.338 185.77 141.871 182.808 141.871C179.846 141.871 177.307 139.338 177.307 136.382V100.07C177.307 97.1143 179.846 94.5809 182.808 94.5809C185.77 94.5809 188.309 97.1143 188.309 100.07V136.382Z" fill="#FCF9F0"/>
<path d="M519.44 248.697H561.333V71.569L519.228 52.9906C519.228 52.7795 477.334 52.7795 477.334 52.7795V338H561.333V259.886H524.729V290.71C524.729 293.665 522.19 296.199 519.228 296.199C516.266 296.199 513.727 293.665 513.727 290.71V254.397C513.727 251.442 516.266 248.908 519.228 248.908L519.44 248.697ZM513.939 99.6477C513.939 96.6921 516.478 94.1586 519.44 94.1586C522.402 94.1586 524.941 96.6921 524.941 99.6477V201.196C524.941 204.151 522.402 206.685 519.44 206.685C516.478 206.685 513.939 204.151 513.939 201.196V99.6477Z" fill="#FCF9F0"/>
<path d="M448.347 162.772L466.543 142.927V52.5683H430.151V136.171C430.151 139.127 427.612 141.66 424.65 141.66C421.688 141.66 419.149 139.127 419.149 136.171V52.5683H382.544V337.789H419.149V189.162C419.149 186.206 421.688 183.673 424.65 183.673C427.612 183.673 430.151 186.206 430.151 189.162V337.789H466.543V182.406L448.347 162.561V162.772Z" fill="#FCF9F0"/>
<path d="M128.221 141.871H95.4253V183.462H128.221V141.871Z" fill="#FCF9F0"/>
<path d="M561.546 0H477.758V41.5902H561.546V0Z" fill="#FCF9F0"/>
</svg>
