<svg width="40" height="40" viewBox="0 0 40 40" fill="none" xmlns="http://www.w3.org/2000/svg">
<g id="material-symbols:map-outline">
<path id="Vector" d="M25 35L15 31.5L7.25 34.5C6.69444 34.7222 6.18056 34.66 5.70833 34.3133C5.23611 33.9667 5 33.5011 5 32.9167V9.58333C5 9.22222 5.10444 8.90278 5.31333 8.625C5.52222 8.34722 5.80667 8.13889 6.16667 8L15 5L25 8.5L32.75 5.5C33.3056 5.27778 33.8194 5.34056 34.2917 5.68833C34.7639 6.03611 35 6.50111 35 7.08333V30.4167C35 30.7778 34.8961 31.0972 34.6883 31.375C34.4806 31.6528 34.1956 31.8611 33.8333 32L25 35ZM23.3333 30.9167V11.4167L16.6667 9.08333V28.5833L23.3333 30.9167ZM26.6667 30.9167L31.6667 29.25V9.5L26.6667 11.4167V30.9167ZM8.33333 30.5L13.3333 28.5833V9.08333L8.33333 10.75V30.5Z" fill="#F8F6F2"/>
</g>
</svg>
