<svg width="40" height="40" viewBox="0 0 40 40" fill="none" xmlns="http://www.w3.org/2000/svg">
<g id="eva:pin-outline">
<path id="Vector" d="M19.9998 3.33325C16.4866 3.33308 13.1153 4.71952 10.6186 7.19124C8.12189 9.66296 6.70164 13.0202 6.6665 16.5333C6.6665 25.6666 18.4165 35.8333 18.9165 36.2666C19.2184 36.5248 19.6026 36.6667 19.9998 36.6667C20.3971 36.6667 20.7813 36.5248 21.0832 36.2666C21.6665 35.8333 33.3332 25.6666 33.3332 16.5333C33.298 13.0202 31.8778 9.66296 29.3811 7.19124C26.8844 4.71952 23.5131 3.33308 19.9998 3.33325ZM19.9998 32.7499C17.2165 30.0999 9.99984 22.7499 9.99984 16.5333C9.99984 13.8811 11.0534 11.3375 12.9288 9.46218C14.8041 7.58682 17.3477 6.53325 19.9998 6.53325C22.652 6.53325 25.1955 7.58682 27.0709 9.46218C28.9463 11.3375 29.9998 13.8811 29.9998 16.5333C29.9998 22.6999 22.7832 30.0999 19.9998 32.7499Z" fill="#F8F6F2"/>
<path id="Vector_2" d="M19.9998 10C18.8461 10 17.7183 10.3421 16.759 10.9831C15.7997 11.6241 15.0521 12.5351 14.6105 13.601C14.169 14.6669 14.0535 15.8398 14.2786 16.9714C14.5037 18.1029 15.0592 19.1423 15.8751 19.9581C16.6909 20.7739 17.7303 21.3295 18.8618 21.5546C19.9934 21.7797 21.1663 21.6641 22.2322 21.2226C23.2981 20.7811 24.2091 20.0334 24.8501 19.0742C25.4911 18.1149 25.8332 16.9871 25.8332 15.8333C25.8332 14.2862 25.2186 12.8025 24.1246 11.7085C23.0307 10.6146 21.5469 10 19.9998 10ZM19.9998 18.3333C19.5054 18.3333 19.022 18.1867 18.6109 17.912C18.1998 17.6373 17.8794 17.2469 17.6901 16.79C17.5009 16.3332 17.4514 15.8306 17.5479 15.3456C17.6443 14.8607 17.8824 14.4152 18.2321 14.0656C18.5817 13.7159 19.0272 13.4778 19.5121 13.3814C19.9971 13.2849 20.4997 13.3344 20.9565 13.5236C21.4134 13.7129 21.8038 14.0333 22.0785 14.4444C22.3532 14.8555 22.4998 15.3389 22.4998 15.8333C22.4998 16.4964 22.2364 17.1323 21.7676 17.6011C21.2988 18.0699 20.6629 18.3333 19.9998 18.3333Z" fill="#F8F6F2"/>
</g>
</svg>
