<svg width="1396" height="718" viewBox="0 0 1396 718" fill="none" xmlns="http://www.w3.org/2000/svg">
<path d="M587.443 111.669H498.45V717.551H587.443V111.669Z" fill="white"/>
<path d="M611.264 111.669V717.551H789.699V111.669H611.264ZM712.842 617.543C712.842 623.821 707.448 629.203 701.156 629.203C694.863 629.203 689.47 623.821 689.47 617.543V212.575C689.47 206.296 694.863 200.914 701.156 200.914C707.448 200.914 712.842 206.296 712.842 212.575V617.991V617.543Z" fill="white"/>
<path d="M1305.68 301.372C1299.39 301.372 1294 295.99 1294 289.711V212.575C1294 206.296 1299.39 200.914 1305.68 200.914C1311.98 200.914 1317.37 206.296 1317.37 212.575V278.051H1395.13V111.669H1216.69V389.72H1305.23C1308.83 389.72 1311.53 391.066 1313.77 393.308C1316.02 395.55 1317.82 398.241 1317.82 401.829V617.543C1317.82 623.821 1312.43 629.203 1306.13 629.203C1299.84 629.203 1294.45 623.821 1294.45 617.543V413.041H1217.14V717.551H1395.58V300.923H1306.58L1305.68 301.372Z" fill="white"/>
<path d="M178.436 678.086V150.686L88.9932 111.221H0V717.103H89.4426L178.436 677.638V678.086ZM77.7567 616.646V211.229C77.7567 204.951 83.1502 199.569 89.4426 199.569C95.7351 199.569 101.129 204.951 101.129 211.229V616.646C101.129 622.924 95.7351 628.306 89.4426 628.306C83.1502 628.306 77.7567 622.924 77.7567 616.646Z" fill="white"/>
<path d="M385.635 112.118H296.642V718H475.077V151.583L385.635 112.118ZM400.018 617.991C400.018 624.27 394.624 629.652 388.332 629.652C382.039 629.652 376.646 624.27 376.646 617.991V402.278C376.646 395.999 382.039 390.617 388.332 390.617C394.624 390.617 400.018 395.999 400.018 402.278V617.991ZM400.018 289.712C400.018 295.99 394.624 301.372 388.332 301.372C382.039 301.372 376.646 295.99 376.646 289.712V212.575C376.646 206.296 382.039 200.915 388.332 200.915C394.624 200.915 400.018 206.296 400.018 212.575V289.712Z" fill="white"/>
<path d="M1103.42 528.298H1192.42V152.031L1102.97 112.566C1102.97 112.118 1013.98 112.118 1013.98 112.118V718H1192.42V552.066H1114.66V617.543C1114.66 623.822 1109.27 629.203 1102.97 629.203C1096.68 629.203 1091.29 623.822 1091.29 617.543V540.406C1091.29 534.128 1096.68 528.746 1102.97 528.746L1103.42 528.298ZM1091.74 211.678C1091.74 205.399 1097.13 200.018 1103.42 200.018C1109.72 200.018 1115.11 205.399 1115.11 211.678V427.392C1115.11 433.67 1109.72 439.052 1103.42 439.052C1097.13 439.052 1091.74 433.67 1091.74 427.392V211.678Z" fill="white"/>
<path d="M952.406 345.77L991.06 303.614V111.669H913.753V289.263C913.753 295.541 908.359 300.923 902.067 300.923C895.774 300.923 890.381 295.541 890.381 289.263V111.669H812.624V717.551H890.381V401.829C890.381 395.55 895.774 390.169 902.067 390.169C908.359 390.169 913.753 395.55 913.753 401.829V717.551H991.06V387.478L952.406 345.322V345.77Z" fill="white"/>
<path d="M272.375 301.372H202.709V389.72H272.375V301.372Z" fill="white"/>
<path d="M1192.87 0H1014.88V88.3485H1192.87V0Z" fill="white"/>
</svg>
