<?xml version="1.0" encoding="utf-8"?>
<!-- Generator: $$$/GeneralStr/196=Adobe Illustrator 27.6.0, SVG Export Plug-In . SVG Version: 6.00 Build 0)  -->
<svg version="1.1" id="svg141" xmlns:svg="http://www.w3.org/2000/svg"
	 xmlns="http://www.w3.org/2000/svg" xmlns:xlink="http://www.w3.org/1999/xlink" x="0px" y="0px" viewBox="0 0 525 265.2"
	 style="enable-background:new 0 0 525 265.2;" xml:space="preserve">
<style type="text/css">
	.st0{fill-rule:evenodd;clip-rule:evenodd;fill:#FFFFFF;}
</style>
<g id="g992">
	<path id="path132" class="st0" d="M115.7,0H379h0c31.8,0,60.7,13,81.7,34c21,20.9,34,49.8,34,81.6v0v0c0,31.8-13,60.7-34,81.6
		c-21,20.9-49.9,33.9-81.7,33.9h0H115.7h0c-31.8,0-60.7-13-81.7-34c-21-20.9-34-49.8-34-81.6v0v0c0-31.8,13-60.7,34-81.6
		C55,13,83.9,0,115.7,0L115.7,0z M379,3.3H115.7h0c-30.9,0-59,12.6-79.4,33c-20.4,20.4-33,48.4-33,79.3v0v0c0,30.9,12.7,59,33,79.3
		c20.4,20.4,48.5,33,79.4,33h0H379h0c30.9,0,59-12.6,79.4-33c20.4-20.4,33-48.4,33-79.3v0v0c0-30.9-12.7-59-33-79.3
		C438.1,15.9,410,3.3,379,3.3L379,3.3z"/>
	<path id="path134" class="st0" d="M32.1,237.9l-1-189l6.9-5.3h64.8c14.4,0,24.4,11.1,31.9,21.7l2.4,3.5V48l5.8-5.4h59.3
		c3.8,6.3,6.1,14.5,6.7,22.2c4.2-8.7,9.4-17.3,16.4-23.2H305l5.7,6.2l0.8,18c3.7-8.4,8.2-16.4,14.7-23.1h60.9
		c4.7,2.9,7.5,7,9.5,11.6c1-4.4,2.5-8.7,5.3-12.6h32.6l0.2,113.4l90.4-0.1l-2.5,10.6l-18.9,25.2l-99.7-0.4l-8.5-4.5v-17.2
		l-13.7,22.1h-84l-5.3-6.3v-16.8l52.5-89.3l-66.2,1l-1.1,102.9l-4.1,7.9l-30.1-0.5l-3-7l0.5-103.4h-62v21.6h51l0.5,7.8l-16.2,28.4
		h-36.3l-0.6,16.9h55.2v10.4l-19.5,26.1l-66.1-0.5l-7.9-7.8v-54.6l-4.9,4.5c-26.8,25.6-42.9,25.4-59.5,3.2l-2.8-2.5v132.3l-12.6-1.1
		L32.1,237.9z M70.1,79.1l0.3,35.8l17.1-0.1c28-2.4,18.9-38.1,3.8-35.7H70.1z M395.5,155.2V68.7L348,146.9v8L395.5,155.2z"/>
	<g id="g985">
		<path id="path136" class="st0" d="M458.9,100.3L458.9,100.3c3.4,0,6.4,1.4,8.6,3.6c2.2,2.2,3.6,5.2,3.6,8.6v0v0
			c0,3.4-1.4,6.4-3.6,8.6c-2.2,2.2-5.2,3.6-8.6,3.6h0h0c-3.3,0-6.4-1.4-8.6-3.6c-2.2-2.2-3.6-5.2-3.6-8.6v0v0c0-3.4,1.4-6.4,3.6-8.6
			C452.5,101.7,455.5,100.3,458.9,100.3L458.9,100.3z M458.9,102.1L458.9,102.1L458.9,102.1c-2.9,0-5.4,1.2-7.3,3
			c-1.9,1.9-3,4.5-3,7.3v0v0c0,2.8,1.2,5.4,3,7.3c1.9,1.9,4.4,3,7.3,3h0h0c2.8,0,5.4-1.2,7.3-3c1.9-1.9,3-4.4,3-7.3v0v0
			c0-2.8-1.2-5.4-3-7.3C464.3,103.3,461.8,102.2,458.9,102.1L458.9,102.1z"/>
		<path id="path138" class="st0" d="M459.7,107.4h-4.3v4.4h4.4c1.3,0,2.3-0.2,2.8-0.5c0.5-0.3,0.8-0.9,0.8-1.7
			c0-0.8-0.3-1.4-0.8-1.7C462.2,107.5,461.2,107.4,459.7,107.4z M453.5,119.2v-13.4h7.1c1.6,0,2.7,0.3,3.6,0.9
			c0.8,0.6,1.2,1.5,1.2,2.7c0,0.9-0.2,1.6-0.6,2.1c-0.4,0.5-1,0.9-1.7,1.2c0.7,0.1,1.2,0.4,1.5,0.7c0.3,0.4,0.5,1,0.6,1.8l0.2,2.2
			c0,0.5,0.1,0.9,0.2,1.1c0.1,0.2,0.2,0.5,0.3,0.6h-2.2c-0.1-0.2-0.1-0.3-0.2-0.5c0-0.2-0.1-0.5-0.1-0.9l-0.2-2
			c-0.1-0.9-0.3-1.6-0.7-1.9c-0.4-0.3-1.1-0.5-2-0.5h-5v5.8L453.5,119.2z"/>
	</g>
</g>
</svg>
